<?xml version="1.0" encoding="UTF-8" standalone="no"?>
<!DOCTYPE svg PUBLIC "-//W3C//DTD SVG 1.1//EN"
 "http://www.w3.org/Graphics/SVG/1.1/DTD/svg11.dtd">
<!-- Generated by graphviz version 2.40.1 (20161225.0304)
 -->
<!-- Title: html Pages: 1 -->
<svg width="170pt" height="260pt"
 viewBox="0.00 0.00 170.00 260.00" xmlns="http://www.w3.org/2000/svg" xmlns:xlink="http://www.w3.org/1999/xlink">
<g id="graph0" class="graph" transform="scale(1 1) rotate(0) translate(4 256)">
<title>html</title>
<polygon fill="#ffffff" stroke="transparent" points="-4,4 -4,-256 166,-256 166,4 -4,4"/>
<!-- html -->
<g id="node1" class="node">
<title>html</title>
<ellipse fill="none" stroke="#000000" cx="63" cy="-234" rx="27.0966" ry="18"/>
<text text-anchor="middle" x="63" y="-230.3" font-family="Times,serif" font-size="14.00" fill="#000000">html</text>
</g>
<!-- body -->
<g id="node2" class="node">
<title>body</title>
<ellipse fill="none" stroke="#000000" cx="63" cy="-162" rx="29.4969" ry="18"/>
<text text-anchor="middle" x="63" y="-158.3" font-family="Times,serif" font-size="14.00" fill="#000000">body</text>
</g>
<!-- html&#45;&gt;body -->
<g id="edge1" class="edge">
<title>html&#45;&gt;body</title>
<path fill="none" stroke="#000000" d="M63,-215.8314C63,-208.131 63,-198.9743 63,-190.4166"/>
<polygon fill="#000000" stroke="#000000" points="66.5001,-190.4132 63,-180.4133 59.5001,-190.4133 66.5001,-190.4132"/>
</g>
<!-- h1 -->
<g id="node3" class="node">
<title>h1</title>
<ellipse fill="none" stroke="#000000" cx="27" cy="-90" rx="27" ry="18"/>
<text text-anchor="middle" x="27" y="-86.3" font-family="Times,serif" font-size="14.00" fill="#000000">h1</text>
</g>
<!-- body&#45;&gt;h1 -->
<g id="edge2" class="edge">
<title>body&#45;&gt;h1</title>
<path fill="none" stroke="#000000" d="M54.2854,-144.5708C50.0403,-136.0807 44.8464,-125.6929 40.1337,-116.2674"/>
<polygon fill="#000000" stroke="#000000" points="43.237,-114.6477 35.6343,-107.2687 36.976,-117.7782 43.237,-114.6477"/>
</g>
<!-- p -->
<g id="node4" class="node">
<title>p</title>
<ellipse fill="none" stroke="#000000" cx="99" cy="-90" rx="27" ry="18"/>
<text text-anchor="middle" x="99" y="-86.3" font-family="Times,serif" font-size="14.00" fill="#000000">p</text>
</g>
<!-- body&#45;&gt;p -->
<g id="edge3" class="edge">
<title>body&#45;&gt;p</title>
<path fill="none" stroke="#000000" d="M71.7146,-144.5708C75.9597,-136.0807 81.1536,-125.6929 85.8663,-116.2674"/>
<polygon fill="#000000" stroke="#000000" points="89.024,-117.7782 90.3657,-107.2687 82.763,-114.6477 89.024,-117.7782"/>
</g>
<!-- b -->
<g id="node5" class="node">
<title>b</title>
<ellipse fill="none" stroke="#000000" cx="63" cy="-18" rx="27" ry="18"/>
<text text-anchor="middle" x="63" y="-14.3" font-family="Times,serif" font-size="14.00" fill="#000000">b</text>
</g>
<!-- p&#45;&gt;b -->
<g id="edge4" class="edge">
<title>p&#45;&gt;b</title>
<path fill="none" stroke="#000000" d="M90.2854,-72.5708C86.0403,-64.0807 80.8464,-53.6929 76.1337,-44.2674"/>
<polygon fill="#000000" stroke="#000000" points="79.237,-42.6477 71.6343,-35.2687 72.976,-45.7782 79.237,-42.6477"/>
</g>
<!-- i -->
<g id="node6" class="node">
<title>i</title>
<ellipse fill="none" stroke="#000000" cx="135" cy="-18" rx="27" ry="18"/>
<text text-anchor="middle" x="135" y="-14.3" font-family="Times,serif" font-size="14.00" fill="#000000">i</text>
</g>
<!-- p&#45;&gt;i -->
<g id="edge5" class="edge">
<title>p&#45;&gt;i</title>
<path fill="none" stroke="#000000" d="M107.7146,-72.5708C111.9597,-64.0807 117.1536,-53.6929 121.8663,-44.2674"/>
<polygon fill="#000000" stroke="#000000" points="125.024,-45.7782 126.3657,-35.2687 118.763,-42.6477 125.024,-45.7782"/>
</g>
</g>
</svg>
