<?xml version="1.0" encoding="UTF-8" standalone="no"?>
<!DOCTYPE svg PUBLIC "-//W3C//DTD SVG 1.1//EN"
 "http://www.w3.org/Graphics/SVG/1.1/DTD/svg11.dtd">
<!-- Generated by graphviz version 2.40.1 (20161225.0304)
 -->
<!-- Title: fs Pages: 1 -->
<svg width="360pt" height="202pt"
 viewBox="0.00 0.00 360.00 202.33" xmlns="http://www.w3.org/2000/svg" xmlns:xlink="http://www.w3.org/1999/xlink">
<g id="graph0" class="graph" transform="scale(.6094 .6094) rotate(0) translate(4 328)">
<title>fs</title>
<polygon fill="#ffffff" stroke="transparent" points="-4,4 -4,-328 586.7077,-328 586.7077,4 -4,4"/>
<!-- document -->
<g id="node1" class="node">
<title>document</title>
<ellipse fill="none" stroke="#000000" cx="135" cy="-306" rx="44.9596" ry="18"/>
<text text-anchor="middle" x="135" y="-301.8" font-family="Times,serif" font-size="14.00" fill="#000000">document</text>
</g>
<!-- html -->
<g id="node2" class="node">
<title>html</title>
<ellipse fill="none" stroke="#000000" cx="135" cy="-234" rx="27" ry="18"/>
<text text-anchor="middle" x="135" y="-229.8" font-family="Times,serif" font-size="14.00" fill="#000000">html</text>
</g>
<!-- document&#45;&gt;html -->
<g id="edge1" class="edge">
<title>document&#45;&gt;html</title>
<path fill="none" stroke="#000000" d="M135,-287.8314C135,-280.131 135,-270.9743 135,-262.4166"/>
<polygon fill="#000000" stroke="#000000" points="138.5001,-262.4132 135,-252.4133 131.5001,-262.4133 138.5001,-262.4132"/>
</g>
<!-- head -->
<g id="node3" class="node">
<title>head</title>
<ellipse fill="none" stroke="#000000" cx="99" cy="-162" rx="27" ry="18"/>
<text text-anchor="middle" x="99" y="-157.8" font-family="Times,serif" font-size="14.00" fill="#000000">head</text>
</g>
<!-- html&#45;&gt;head -->
<g id="edge2" class="edge">
<title>html&#45;&gt;head</title>
<path fill="none" stroke="#000000" d="M126.2854,-216.5708C122.0403,-208.0807 116.8464,-197.6929 112.1337,-188.2674"/>
<polygon fill="#000000" stroke="#000000" points="115.237,-186.6477 107.6343,-179.2687 108.976,-189.7782 115.237,-186.6477"/>
</g>
<!-- body -->
<g id="node6" class="node">
<title>body</title>
<ellipse fill="none" stroke="#000000" cx="207" cy="-162" rx="27.589" ry="18"/>
<text text-anchor="middle" x="207" y="-157.8" font-family="Times,serif" font-size="14.00" fill="#000000">body</text>
</g>
<!-- html&#45;&gt;body -->
<g id="edge5" class="edge">
<title>html&#45;&gt;body</title>
<path fill="none" stroke="#000000" d="M150.2693,-218.7307C160.197,-208.803 173.3153,-195.6847 184.4363,-184.5637"/>
<polygon fill="#000000" stroke="#000000" points="187.1564,-186.7933 191.7527,-177.2473 182.2067,-181.8436 187.1564,-186.7933"/>
</g>
<!-- title -->
<g id="node4" class="node">
<title>title</title>
<ellipse fill="none" stroke="#000000" cx="27" cy="-90" rx="27" ry="18"/>
<text text-anchor="middle" x="27" y="-85.8" font-family="Times,serif" font-size="14.00" fill="#000000">title</text>
</g>
<!-- head&#45;&gt;title -->
<g id="edge3" class="edge">
<title>head&#45;&gt;title</title>
<path fill="none" stroke="#000000" d="M83.7307,-146.7307C73.803,-136.803 60.6847,-123.6847 49.5637,-112.5637"/>
<polygon fill="#000000" stroke="#000000" points="51.7933,-109.8436 42.2473,-105.2473 46.8436,-114.7933 51.7933,-109.8436"/>
</g>
<!-- link -->
<g id="node5" class="node">
<title>link</title>
<ellipse fill="none" stroke="#000000" cx="99" cy="-90" rx="27" ry="18"/>
<text text-anchor="middle" x="99" y="-85.8" font-family="Times,serif" font-size="14.00" fill="#000000">link</text>
</g>
<!-- head&#45;&gt;link -->
<g id="edge4" class="edge">
<title>head&#45;&gt;link</title>
<path fill="none" stroke="#000000" d="M99,-143.8314C99,-136.131 99,-126.9743 99,-118.4166"/>
<polygon fill="#000000" stroke="#000000" points="102.5001,-118.4132 99,-108.4133 95.5001,-118.4133 102.5001,-118.4132"/>
</g>
<!-- h1 -->
<g id="node7" class="node">
<title>h1</title>
<ellipse fill="none" stroke="#000000" cx="171" cy="-90" rx="27" ry="18"/>
<text text-anchor="middle" x="171" y="-85.8" font-family="Times,serif" font-size="14.00" fill="#000000">h1</text>
</g>
<!-- body&#45;&gt;h1 -->
<g id="edge6" class="edge">
<title>body&#45;&gt;h1</title>
<path fill="none" stroke="#000000" d="M198.2854,-144.5708C194.0403,-136.0807 188.8464,-125.6929 184.1337,-116.2674"/>
<polygon fill="#000000" stroke="#000000" points="187.237,-114.6477 179.6343,-107.2687 180.976,-117.7782 187.237,-114.6477"/>
</g>
<!-- ul -->
<g id="node8" class="node">
<title>ul</title>
<ellipse fill="none" stroke="#000000" cx="243" cy="-90" rx="27" ry="18"/>
<text text-anchor="middle" x="243" y="-85.8" font-family="Times,serif" font-size="14.00" fill="#000000">ul</text>
</g>
<!-- body&#45;&gt;ul -->
<g id="edge7" class="edge">
<title>body&#45;&gt;ul</title>
<path fill="none" stroke="#000000" d="M215.7146,-144.5708C219.9597,-136.0807 225.1536,-125.6929 229.8663,-116.2674"/>
<polygon fill="#000000" stroke="#000000" points="233.024,-117.7782 234.3657,-107.2687 226.763,-114.6477 233.024,-117.7782"/>
</g>
<!-- form -->
<g id="node9" class="node">
<title>form</title>
<ellipse fill="none" stroke="#000000" cx="411" cy="-90" rx="27.0958" ry="18"/>
<text text-anchor="middle" x="411" y="-85.8" font-family="Times,serif" font-size="14.00" fill="#000000">form</text>
</g>
<!-- body&#45;&gt;form -->
<g id="edge8" class="edge">
<title>body&#45;&gt;form</title>
<path fill="none" stroke="#000000" d="M231.6072,-153.3151C267.9281,-140.496 336.0103,-116.467 377.0548,-101.9806"/>
<polygon fill="#000000" stroke="#000000" points="378.3581,-105.2323 386.6231,-98.6036 376.0283,-98.6314 378.3581,-105.2323"/>
</g>
<!-- li #1 -->
<g id="node13" class="node">
<title>li #1</title>
<ellipse fill="none" stroke="#000000" cx="135" cy="-18" rx="27" ry="18"/>
<text text-anchor="middle" x="135" y="-13.8" font-family="Times,serif" font-size="14.00" fill="#000000">li #1</text>
</g>
<!-- ul&#45;&gt;li #1 -->
<g id="edge12" class="edge">
<title>ul&#45;&gt;li #1</title>
<path fill="none" stroke="#000000" d="M223.6918,-77.1278C206.6445,-65.763 181.5981,-49.0654 162.4656,-36.3104"/>
<polygon fill="#000000" stroke="#000000" points="164.4031,-33.3956 154.1411,-30.7607 160.5201,-39.2199 164.4031,-33.3956"/>
</g>
<!-- li #2 -->
<g id="node14" class="node">
<title>li #2</title>
<ellipse fill="none" stroke="#000000" cx="207" cy="-18" rx="27" ry="18"/>
<text text-anchor="middle" x="207" y="-13.8" font-family="Times,serif" font-size="14.00" fill="#000000">li #2</text>
</g>
<!-- ul&#45;&gt;li #2 -->
<g id="edge13" class="edge">
<title>ul&#45;&gt;li #2</title>
<path fill="none" stroke="#000000" d="M234.2854,-72.5708C230.0403,-64.0807 224.8464,-53.6929 220.1337,-44.2674"/>
<polygon fill="#000000" stroke="#000000" points="223.237,-42.6477 215.6343,-35.2687 216.976,-45.7782 223.237,-42.6477"/>
</g>
<!-- li #3 -->
<g id="node15" class="node">
<title>li #3</title>
<ellipse fill="none" stroke="#000000" cx="279" cy="-18" rx="27" ry="18"/>
<text text-anchor="middle" x="279" y="-13.8" font-family="Times,serif" font-size="14.00" fill="#000000">li #3</text>
</g>
<!-- ul&#45;&gt;li #3 -->
<g id="edge14" class="edge">
<title>ul&#45;&gt;li #3</title>
<path fill="none" stroke="#000000" d="M251.7146,-72.5708C255.9597,-64.0807 261.1536,-53.6929 265.8663,-44.2674"/>
<polygon fill="#000000" stroke="#000000" points="269.024,-45.7782 270.3657,-35.2687 262.763,-42.6477 269.024,-45.7782"/>
</g>
<!-- input #1 -->
<g id="node10" class="node">
<title>input #1</title>
<ellipse fill="none" stroke="#000000" cx="363" cy="-18" rx="39.1813" ry="18"/>
<text text-anchor="middle" x="363" y="-13.8" font-family="Times,serif" font-size="14.00" fill="#000000">input #1</text>
</g>
<!-- form&#45;&gt;input #1 -->
<g id="edge9" class="edge">
<title>form&#45;&gt;input #1</title>
<path fill="none" stroke="#000000" d="M399.8672,-73.3008C394.0998,-64.6496 386.9248,-53.8873 380.4415,-44.1623"/>
<polygon fill="#000000" stroke="#000000" points="383.2013,-41.9922 374.7421,-35.6132 377.377,-45.8752 383.2013,-41.9922"/>
</g>
<!-- input #2 -->
<g id="node11" class="node">
<title>input #2</title>
<ellipse fill="none" stroke="#000000" cx="460" cy="-18" rx="39.1813" ry="18"/>
<text text-anchor="middle" x="460" y="-13.8" font-family="Times,serif" font-size="14.00" fill="#000000">input #2</text>
</g>
<!-- form&#45;&gt;input #2 -->
<g id="edge10" class="edge">
<title>form&#45;&gt;input #2</title>
<path fill="none" stroke="#000000" d="M422.3647,-73.3008C428.2523,-64.6496 435.5767,-53.8873 442.1951,-44.1623"/>
<polygon fill="#000000" stroke="#000000" points="445.2805,-45.8495 448.0133,-35.6132 439.4935,-41.9111 445.2805,-45.8495"/>
</g>
<!-- button -->
<g id="node12" class="node">
<title>button</title>
<ellipse fill="none" stroke="#000000" cx="550" cy="-18" rx="32.9168" ry="18"/>
<text text-anchor="middle" x="550" y="-13.8" font-family="Times,serif" font-size="14.00" fill="#000000">button</text>
</g>
<!-- form&#45;&gt;button -->
<g id="edge11" class="edge">
<title>form&#45;&gt;button</title>
<path fill="none" stroke="#000000" d="M432.7188,-78.75C455.296,-67.0553 490.9118,-48.6068 516.9763,-35.1058"/>
<polygon fill="#000000" stroke="#000000" points="518.8354,-38.0846 526.105,-30.3772 515.6157,-31.8689 518.8354,-38.0846"/>
</g>
</g>
</svg>
