<svg width="51" height="51" viewBox="0 0 51 51" xmlns="http://www.w3.org/2000/svg" xmlns:xlink="http://www.w3.org/1999/xlink"><title>compass</title><defs><path d="M38.297 47.579C34.391 49.86 30.126 51 25.5 51c-4.624 0-8.89-1.14-12.797-3.421-3.906-2.281-7-5.376-9.28-9.282C1.14 34.391 0 30.126 0 25.5c0-4.625 1.14-8.89 3.422-12.797 2.28-3.906 5.375-7 9.281-9.281C16.61 1.14 20.875 0 25.5 0c4.626 0 8.891 1.14 12.797 3.422 3.907 2.28 7 5.375 9.282 9.281C49.86 16.61 51 20.875 51 25.5c0 4.626-1.14 8.891-3.421 12.797-2.281 3.906-5.375 7-9.282 9.282z" id="a"/><mask id="b" x="0" y="0" width="51" height="51" fill="#fff"><use xlink:href="#a"/></mask></defs><g fill="none" fill-rule="evenodd"><use stroke="#FFC265" mask="url(#b)" stroke-width="3.175" fill="#FFF" xlink:href="#a"/><g opacity=".5" fill="#D8D8D8"><path d="M25.156 8.766l4.029 16.39-4.029 16.391-4.028-16.39z"/><path d="M8.766 25.156l16.39-4.028 16.391 4.028-16.39 4.029z"/></g><path fill="#FFD58B" d="M31.165 31.252L14.36 36.57l5.319-16.803 16.803-5.319z"/><path fill="#FFC35F" d="M31.165 31.252L14.36 36.57l11.044-11.043z"/><path fill-opacity=".3" fill="#FFF" d="M19.68 19.767l16.803-5.319-11.078 11.079z"/></g></svg>